<?xml version="1.0" standalone="no"?><!DOCTYPE svg PUBLIC "-//W3C//DTD SVG 1.1//EN" "http://www.w3.org/Graphics/SVG/1.1/DTD/svg11.dtd"><svg t="1617086165827" class="icon" viewBox="0 0 1024 1024" version="1.1" xmlns="http://www.w3.org/2000/svg" p-id="1185" xmlns:xlink="http://www.w3.org/1999/xlink" width="200" height="200"><defs><style type="text/css"></style></defs><path d="M249.173333 727.04h-34.133333v-221.866667h119.466667v34.133334H249.173333z" fill="#FF9A22" p-id="1186"></path><path d="M232.106667 607.573333h68.266666v34.133334h-68.266666zM491.52 740.693333l-71.68-71.68v61.44h-34.133333v-95.573333l-23.893334-23.893333h23.893334v-102.4h68.266666c37.546667 0 68.266667 30.72 68.266667 68.266666s-30.72 68.266667-68.266667 68.266667H443.733333l71.68 71.68-23.893333 23.893333z m-71.68-133.12h34.133333c20.48 0 34.133333-13.653333 34.133334-34.133333s-13.653333-34.133333-34.133334-34.133333h-34.133333v68.266666zM675.84 744.106667h-119.466667v-238.933334h119.466667v34.133334h-85.333333v170.666666h85.333333z" fill="#FF9A22" p-id="1187"></path><path d="M573.44 607.573333h68.266667v34.133334h-68.266667zM846.506667 744.106667h-119.466667v-238.933334h119.466667v34.133334h-85.333334v170.666666h85.333334z" fill="#FF9A22" p-id="1188"></path><path d="M744.106667 607.573333h68.266666v34.133334h-68.266666z" fill="#FF9A22" p-id="1189"></path><path d="M846.506667 812.373333h-614.4c-47.786667 0-85.333333-37.546667-85.333334-85.333333v-204.8c0-47.786667 37.546667-85.333333 85.333334-85.333333h614.4c47.786667 0 85.333333 37.546667 85.333333 85.333333v204.8c0 47.786667-37.546667 85.333333-85.333333 85.333333z m-614.4-341.333333c-27.306667 0-51.2 23.893333-51.2 51.2v204.8c0 27.306667 23.893333 51.2 51.2 51.2h614.4c27.306667 0 51.2-23.893333 51.2-51.2v-204.8c0-27.306667-23.893333-51.2-51.2-51.2h-614.4zM539.306667 368.64c-47.786667 0-85.333333-37.546667-85.333334-85.333333s37.546667-85.333333 85.333334-85.333334 85.333333 37.546667 85.333333 85.333334-37.546667 85.333333-85.333333 85.333333z m0-136.533333c-27.306667 0-51.2 23.893333-51.2 51.2s23.893333 51.2 51.2 51.2 51.2-23.893333 51.2-51.2-23.893333-51.2-51.2-51.2z" fill="#2D3545" p-id="1190"></path><path d="M285.422933 443.5968l171.349334-171.349333 24.132266 24.132266-171.349333 171.349334zM595.0464 296.379733l24.132267-24.132266 171.349333 171.349333-24.132267 24.132267z" fill="#2D3545" p-id="1191"></path></svg>